<svg xmlns="http://www.w3.org/2000/svg" viewBox="131 111 113 114" width="200" height="200">
  <circle cx="187.5" cy="167.925781" r="56.25" fill="#f0ac4c"/>
  <g fill="#ffffff" fill-opacity="1">
    <g transform="translate(136.078121, 184.427097)">
      <path d="M 14.640625 0.046875 C 12.796875 0.0664062 11.0625 -0.265625 9.4375 -0.953125 C 7.8125 -1.648438 6.367188 -2.640625 5.109375 -3.921875 C 3.859375 -5.203125 2.875 -6.691406 2.15625 -8.390625 C 1.4375 -10.097656 1.050781 -11.953125 1 -13.953125 C 0.96875 -15.878906 1.300781 -17.679688 2 -19.359375 C 2.695312 -21.035156 3.671875 -22.515625 4.921875 -23.796875 C 6.171875 -25.078125 7.625 -26.082031 9.28125 -26.8125 C 10.9375 -27.550781 12.722656 -27.921875 14.640625 -27.921875 C 16.484375 -27.941406 18.21875 -27.601562 19.84375 -26.90625 C 21.46875 -26.21875 22.90625 -25.238281 24.15625 -23.96875 C 25.414062 -22.707031 26.410156 -21.222656 27.140625 -19.515625 C 27.867188 -17.804688 28.25 -15.953125 28.28125 -13.953125 C 28.332031 -12.035156 28.003906 -10.238281 27.296875 -8.5625 C 26.585938 -6.882812 25.609375 -5.410156 24.359375 -4.140625 C 23.109375 -2.867188 21.648438 -1.867188 19.984375 -1.140625 C 18.316406 -0.410156 16.535156 -0.015625 14.640625 0.046875 Z M 14.765625 -7.765625 C 15.929688 -7.765625 16.960938 -8.1875 17.859375 -9.03125 C 18.753906 -9.882812 19.1875 -11.046875 19.15625 -12.515625 C 19.15625 -14.015625 18.710938 -15.1875 17.828125 -16.03125 C 16.953125 -16.882812 15.929688 -17.3125 14.765625 -17.3125 C 13.585938 -17.3125 12.554688 -16.882812 11.671875 -16.03125 C 10.796875 -15.1875 10.359375 -14.015625 10.359375 -12.515625 C 10.359375 -11.046875 10.796875 -9.882812 11.671875 -9.03125 C 12.554688 -8.1875 13.585938 -7.765625 14.765625 -7.765625 Z M 14.765625 -7.765625 "/>
    </g>
  </g>
  <g fill="#ffffff" fill-opacity="1">
    <g transform="translate(164.555254, 184.427097)">
      <path d="M 16.796875 0 C 15.734375 0 14.976562 -0.296875 14.53125 -0.890625 C 14.09375 -1.492188 13.832031 -2.253906 13.75 -3.171875 C 13.675781 -4.097656 13.640625 -5.023438 13.640625 -5.953125 C 13.640625 -7.367188 13.4375 -8.507812 13.03125 -9.375 C 12.632812 -10.25 11.929688 -10.6875 10.921875 -10.6875 C 10.015625 -10.6875 9.347656 -10.25 8.921875 -9.375 C 8.492188 -8.507812 8.28125 -7.367188 8.28125 -5.953125 C 8.28125 -5.023438 8.242188 -4.109375 8.171875 -3.203125 C 8.109375 -2.296875 7.863281 -1.539062 7.4375 -0.9375 C 7.007812 -0.34375 6.238281 -0.046875 5.125 -0.046875 C 4.289062 -0.046875 3.597656 -0.347656 3.046875 -0.953125 C 2.503906 -1.566406 2.085938 -2.367188 1.796875 -3.359375 C 1.503906 -4.347656 1.296875 -5.414062 1.171875 -6.5625 C 1.054688 -7.707031 1 -8.8125 1 -9.875 C 1 -10.945312 1.050781 -12.039062 1.15625 -13.15625 C 1.257812 -14.28125 1.453125 -15.320312 1.734375 -16.28125 C 2.015625 -17.238281 2.421875 -18.007812 2.953125 -18.59375 C 3.492188 -19.1875 4.191406 -19.484375 5.046875 -19.484375 C 6.554688 -19.484375 7.5 -18.789062 7.875 -17.40625 C 8.195312 -17.75 8.710938 -18.070312 9.421875 -18.375 C 10.128906 -18.6875 10.9375 -18.84375 11.84375 -18.84375 C 13.894531 -18.84375 15.570312 -18.320312 16.875 -17.28125 C 18.1875 -16.238281 19.140625 -14.800781 19.734375 -12.96875 C 20.335938 -11.144531 20.625 -9.035156 20.59375 -6.640625 C 20.59375 -5.410156 20.476562 -4.296875 20.25 -3.296875 C 20.03125 -2.296875 19.644531 -1.492188 19.09375 -0.890625 C 18.550781 -0.296875 17.785156 0 16.796875 0 Z M 16.796875 0 "/>
    </g>
  </g>
  <g fill="#ffffff" fill-opacity="1">
    <g transform="translate(186.153103, 184.427097)">
      <path d="M 16.484375 0 C 15.546875 0 14.773438 -0.242188 14.171875 -0.734375 C 13.578125 -1.234375 13.171875 -1.851562 12.953125 -2.59375 C 12.742188 -3.34375 12.613281 -4.175781 12.5625 -5.09375 C 12.507812 -6.019531 12.488281 -6.953125 12.5 -7.890625 C 12.507812 -8.835938 12.5 -9.710938 12.46875 -10.515625 C 12.445312 -11.316406 12.367188 -11.957031 12.234375 -12.4375 C 12.109375 -12.914062 11.859375 -13.15625 11.484375 -13.15625 C 10.953125 -13.15625 10.578125 -12.9375 10.359375 -12.5 C 10.148438 -12.0625 10.046875 -11.472656 10.046875 -10.734375 C 10.046875 -10.003906 10.085938 -9.210938 10.171875 -8.359375 C 10.265625 -7.503906 10.363281 -6.65625 10.46875 -5.8125 C 10.582031 -4.976562 10.640625 -4.238281 10.640625 -3.59375 C 10.640625 -2.257812 10.335938 -1.335938 9.734375 -0.828125 C 9.140625 -0.328125 8.320312 -0.078125 7.28125 -0.078125 C 6.238281 -0.078125 5.320312 -0.507812 4.53125 -1.375 C 3.75 -2.25 3.097656 -3.367188 2.578125 -4.734375 C 2.054688 -6.109375 1.660156 -7.59375 1.390625 -9.1875 C 1.128906 -10.789062 1 -12.316406 1 -13.765625 C 1 -15.523438 1.191406 -17.226562 1.578125 -18.875 C 1.960938 -20.53125 2.546875 -22.007812 3.328125 -23.3125 C 4.117188 -24.625 5.101562 -25.664062 6.28125 -26.4375 C 7.457031 -27.207031 8.84375 -27.59375 10.4375 -27.59375 C 11.6875 -27.59375 12.722656 -27.316406 13.546875 -26.765625 C 14.378906 -26.222656 15.039062 -25.539062 15.53125 -24.71875 C 16.03125 -23.894531 16.375 -23.054688 16.5625 -22.203125 C 16.75 -23.054688 17.082031 -23.894531 17.5625 -24.71875 C 18.039062 -25.539062 18.691406 -26.222656 19.515625 -26.765625 C 20.347656 -27.316406 21.375 -27.59375 22.59375 -27.59375 C 24.625 -27.59375 26.351562 -26.96875 27.78125 -25.71875 C 29.207031 -24.46875 30.289062 -22.738281 31.03125 -20.53125 C 31.78125 -18.332031 32.15625 -15.78125 32.15625 -12.875 C 32.15625 -11.519531 32.007812 -10.085938 31.71875 -8.578125 C 31.425781 -7.066406 31.003906 -5.664062 30.453125 -4.375 C 29.910156 -3.082031 29.25 -2.03125 28.46875 -1.21875 C 27.695312 -0.40625 26.820312 0 25.84375 0 C 24.769531 0 23.925781 -0.265625 23.3125 -0.796875 C 22.707031 -1.328125 22.40625 -2.257812 22.40625 -3.59375 C 22.40625 -4.238281 22.457031 -4.976562 22.5625 -5.8125 C 22.664062 -6.65625 22.769531 -7.503906 22.875 -8.359375 C 22.988281 -9.210938 23.046875 -10.003906 23.046875 -10.734375 C 23.046875 -11.472656 22.941406 -12.0625 22.734375 -12.5 C 22.535156 -12.9375 22.171875 -13.15625 21.640625 -13.15625 C 21.265625 -13.15625 21.003906 -12.914062 20.859375 -12.4375 C 20.710938 -11.957031 20.617188 -11.320312 20.578125 -10.53125 C 20.535156 -9.75 20.515625 -8.882812 20.515625 -7.9375 C 20.515625 -6.988281 20.492188 -6.046875 20.453125 -5.109375 C 20.421875 -4.179688 20.296875 -3.34375 20.078125 -2.59375 C 19.890625 -1.851562 19.488281 -1.234375 18.875 -0.734375 C 18.257812 -0.242188 17.460938 0 16.484375 0 Z M 16.484375 0 "/>
    </g>
  </g>
  <g fill="#ffffff" fill-opacity="1">
    <g transform="translate(218.509852, 184.427097)">
      <path d="M 11.046875 0 C 9.046875 0 7.289062 -0.390625 5.78125 -1.171875 C 4.269531 -1.960938 3.09375 -3.046875 2.25 -4.421875 C 1.414062 -5.796875 1 -7.375 1 -9.15625 C 1 -10.894531 1.414062 -12.492188 2.25 -13.953125 C 3.09375 -15.421875 4.253906 -16.59375 5.734375 -17.46875 C 7.210938 -18.351562 8.914062 -18.796875 10.84375 -18.796875 C 12.625 -18.796875 14.15625 -18.4375 15.4375 -17.71875 C 16.71875 -17 17.695312 -16.082031 18.375 -14.96875 C 19.0625 -13.863281 19.40625 -12.703125 19.40625 -11.484375 C 19.40625 -10.253906 19.125 -9.242188 18.5625 -8.453125 C 18 -7.671875 17.269531 -7.070312 16.375 -6.65625 C 15.488281 -6.25 14.535156 -5.976562 13.515625 -5.84375 C 12.503906 -5.707031 11.53125 -5.6875 10.59375 -5.78125 C 9.664062 -5.875 8.878906 -6.023438 8.234375 -6.234375 C 8.710938 -5.460938 9.316406 -4.9375 10.046875 -4.65625 C 10.785156 -4.375 11.5625 -4.253906 12.375 -4.296875 C 13.1875 -4.335938 13.925781 -4.425781 14.59375 -4.5625 C 15.425781 -4.75 16.109375 -4.707031 16.640625 -4.4375 C 17.171875 -4.175781 17.453125 -3.75 17.484375 -3.15625 C 17.503906 -2.675781 17.332031 -2.195312 16.96875 -1.71875 C 16.613281 -1.238281 15.96875 -0.832031 15.03125 -0.5 C 14.101562 -0.164062 12.773438 0 11.046875 0 Z M 8.359375 -11.125 C 8.628906 -10.695312 9.015625 -10.394531 9.515625 -10.21875 C 10.023438 -10.039062 10.539062 -9.976562 11.0625 -10.03125 C 11.582031 -10.09375 12.019531 -10.242188 12.375 -10.484375 C 12.738281 -10.722656 12.921875 -11.054688 12.921875 -11.484375 C 12.921875 -11.929688 12.738281 -12.332031 12.375 -12.6875 C 12.019531 -13.050781 11.457031 -13.234375 10.6875 -13.234375 C 9.9375 -13.234375 9.359375 -13 8.953125 -12.53125 C 8.554688 -12.070312 8.359375 -11.601562 8.359375 -11.125 Z M 8.359375 -11.125 "/>
    </g>
  </g>
</svg>